<?xml version="1.0" standalone="no"?>
<!DOCTYPE svg PUBLIC "-//W3C//DTD SVG 20010904//EN"
 "http://www.w3.org/TR/2001/REC-SVG-20010904/DTD/svg10.dtd">
<svg version="1.0" xmlns="http://www.w3.org/2000/svg"
 width="1024.000000pt" height="1024.000000pt" viewBox="0 0 1024.000000 1024.000000"
 preserveAspectRatio="xMidYMid meet">

<g transform="translate(0.000000,1024.000000) scale(0.100000,-0.100000)"
fill="#000000" stroke="none">
<path d="M7731 10131 c-21 -21 -35 -65 -46 -142 l-7 -46 -246 -6 c-523 -14
-900 -73 -1388 -218 -130 -38 -287 -90 -348 -115 -61 -25 -119 -48 -128 -51
-10 -3 -43 11 -77 31 -141 86 -324 161 -481 198 -108 25 -373 35 -479 19 -292
-46 -543 -222 -646 -454 -87 -197 -67 -464 45 -613 l41 -54 -15 -45 c-9 -24
-20 -72 -25 -106 -6 -34 -14 -66 -19 -71 -5 -5 -18 12 -30 41 -23 57 -50 71
-87 47 -50 -33 -42 -111 20 -183 19 -23 35 -50 35 -61 0 -13 -43 -59 -124
-130 -128 -114 -175 -170 -220 -259 -91 -181 -73 -432 47 -668 32 -64 99 -155
178 -241 40 -44 75 -96 97 -144 43 -95 71 -131 129 -171 130 -90 325 -93 638
-9 63 16 119 30 124 30 14 0 14 -114 0 -180 l-11 -50 -51 0 c-74 -1 -132 -16
-212 -56 -111 -56 -165 -102 -415 -354 -168 -168 -259 -252 -320 -293 l-84
-57 -71 68 c-61 60 -130 119 -408 345 -59 48 -109 61 -134 36 -7 -7 -26 7 -62
47 -85 92 -91 111 -91 271 0 210 -23 282 -125 402 -58 68 -68 87 -95 189 -30
111 -66 152 -134 152 -26 0 -56 -4 -66 -10 -17 -9 -19 -4 -24 53 -3 34 -8 247
-11 472 -3 226 -8 592 -12 813 l-6 404 52 -27 c129 -65 171 -15 133 157 l-19
87 79 80 c62 64 78 85 78 109 0 58 -49 78 -199 84 l-64 3 -32 95 c-38 107 -60
133 -114 128 -43 -4 -68 -37 -108 -144 l-28 -72 -55 -7 c-120 -13 -141 -18
-165 -37 -19 -14 -25 -29 -25 -56 0 -33 8 -45 78 -112 l79 -75 -23 -90 c-30
-113 -30 -136 -1 -163 32 -31 65 -28 141 13 l66 35 0 -238 c0 -131 4 -387 9
-568 6 -181 13 -494 16 -696 l6 -366 -58 5 c-47 4 -66 0 -102 -19 -68 -35 -86
-67 -86 -146 0 -55 -4 -73 -24 -101 -20 -27 -25 -50 -29 -115 -3 -48 -11 -90
-20 -104 -22 -34 -18 -131 8 -183 47 -91 171 -183 265 -196 l45 -6 0 -61 c0
-69 16 -100 55 -110 28 -7 57 5 92 37 13 11 24 19 26 16 2 -2 21 -33 42 -69
22 -36 74 -119 117 -184 l78 -119 -58 -111 c-32 -61 -144 -259 -249 -441 -230
-400 -312 -556 -392 -743 -111 -260 -172 -470 -196 -673 -7 -53 -5 -59 23 -90
28 -31 32 -33 97 -31 91 3 257 27 380 57 328 78 680 250 1000 489 205 153 603
565 861 891 l31 39 32 -49 c41 -66 75 -176 68 -222 -12 -73 -51 -125 -249
-335 -915 -971 -1551 -1766 -2152 -2694 -86 -133 -156 -251 -156 -264 0 -16
41 -64 144 -164 114 -112 160 -166 225 -263 104 -156 181 -252 270 -336 181
-170 410 -286 625 -316 43 -6 230 -11 424 -11 406 0 441 -4 757 -85 507 -131
604 -151 860 -179 400 -43 946 -23 1365 50 523 91 963 251 1296 473 207 137
414 325 414 375 0 31 -35 85 -710 1109 -385 584 -682 1035 -693 1053 -5 9 19
27 85 60 106 55 266 160 408 269 92 70 100 74 104 53 33 -172 43 -196 123
-303 33 -44 81 -122 107 -172 83 -162 159 -193 233 -97 26 34 28 44 28 123 0
47 -4 106 -8 130 l-8 44 28 -18 c15 -10 72 -49 126 -87 210 -150 332 -208 439
-208 44 0 54 4 84 34 24 24 34 44 35 67 3 103 -11 147 -79 254 -64 100 -158
193 -312 308 -255 191 -410 318 -403 330 3 7 25 35 48 62 60 72 97 129 144
223 64 127 52 153 -90 201 -115 39 -343 138 -501 217 -194 97 -253 135 -506
330 -11 8 7 15 74 28 398 77 769 326 973 650 66 106 154 321 183 446 28 125
30 334 5 430 -74 280 -293 413 -593 359 -138 -24 -191 -54 -178 -103 8 -32 42
-51 107 -59 115 -15 187 -86 187 -183 0 -127 -138 -253 -321 -294 -75 -17
-259 -9 -324 14 -253 90 -436 289 -507 551 -19 69 -22 107 -22 285 -1 201 0
209 38 385 74 347 161 611 262 790 144 255 407 605 663 880 106 114 251 254
263 255 4 0 4 -22 1 -49 -7 -62 2 -97 28 -112 31 -16 59 -5 148 61 l81 60 92
-45 c103 -50 125 -54 156 -25 30 28 28 62 -9 164 l-32 87 71 73 c134 138 109
190 -97 200 l-105 5 -30 56 c-45 86 -102 145 -137 145 -16 0 -38 -9 -48 -19z
m120 -243 l29 -58 90 0 c50 0 90 -4 90 -9 0 -5 -27 -32 -59 -60 l-60 -52 24
-69 c13 -39 21 -70 17 -69 -4 0 -34 13 -67 28 l-60 28 -64 -50 -64 -51 6 44
c4 25 9 68 13 96 l6 52 -70 50 -71 49 71 6 c39 3 74 11 78 17 3 6 12 40 20 77
15 76 18 75 71 -29z m-378 -102 c23 -18 60 -45 83 -60 l41 -27 -187 -187
c-201 -202 -326 -341 -493 -550 -117 -146 -280 -377 -347 -489 -23 -40 -45
-73 -49 -73 -3 0 -37 55 -75 123 -107 189 -172 291 -270 422 -88 116 -304 343
-436 457 l-65 56 60 27 c186 84 651 214 948 265 227 38 481 65 655 68 92 2 94
2 135 -32z m-2508 -119 c175 -39 388 -136 550 -252 368 -263 607 -550 866
-1037 l57 -107 -23 -15 c-48 -31 -144 -56 -217 -56 -130 0 -239 44 -369 148
-121 95 -202 199 -314 402 -152 275 -303 407 -540 471 -112 31 -306 31 -419 0
-105 -28 -211 -80 -288 -142 -68 -54 -176 -181 -205 -241 -10 -21 -22 -38 -26
-38 -4 0 -22 30 -39 67 -28 58 -32 80 -36 173 -8 192 31 294 162 425 112 112
256 183 433 215 70 13 327 4 408 -13z m-2630 -249 l23 -73 76 -5 c42 -3 76 -9
77 -13 0 -5 -23 -27 -50 -49 -28 -23 -51 -48 -51 -56 0 -8 7 -41 16 -74 8 -33
13 -62 11 -65 -3 -2 -32 12 -65 32 l-61 35 -62 -40 c-34 -22 -64 -39 -65 -37
-2 2 3 27 11 57 22 83 20 90 -42 146 l-58 52 77 7 77 7 27 80 c14 43 28 77 31
75 2 -3 15 -38 28 -79z m2578 -314 c82 -18 210 -77 280 -129 66 -49 114 -114
223 -305 105 -182 175 -280 259 -359 l56 -53 -39 -92 c-72 -166 -181 -541
-227 -776 -20 -101 -50 -153 -138 -237 -164 -157 -359 -247 -737 -343 -204
-52 -262 -61 -360 -61 -167 0 -222 32 -287 167 -33 69 -64 115 -120 176 -134
148 -201 268 -237 425 -45 199 2 352 157 508 62 62 71 68 77 50 5 -11 16 -42
26 -69 9 -28 35 -69 57 -93 l40 -44 -21 -22 c-71 -76 -49 -202 51 -294 71 -66
160 -70 181 -10 14 38 0 57 -52 75 -85 28 -121 118 -66 161 32 25 98 28 151 6
45 -19 62 -19 85 2 29 26 24 78 -12 104 l-29 22 61 65 c80 86 120 170 126 267
8 132 -43 236 -141 287 -44 22 -143 27 -190 9 -32 -12 -34 -4 -13 57 23 63 66
121 111 148 52 30 70 30 111 -1 57 -43 104 -29 104 31 0 52 -65 114 -120 114
-62 0 126 150 232 186 137 46 277 56 401 28z m-661 -711 c38 -38 57 -124 39
-182 -14 -48 -31 -54 -31 -12 0 68 -37 103 -90 86 -38 -12 -92 -68 -116 -120
-28 -58 -30 -92 -9 -142 18 -43 14 -50 -22 -37 -51 18 -68 56 -68 152 0 136
47 219 150 269 62 29 108 25 147 -14z m1662 -248 c96 -47 173 -65 276 -65 83
0 195 21 214 41 6 5 16 9 22 9 9 0 3 -27 -17 -87 -38 -113 -80 -271 -121 -453
-30 -137 -32 -157 -32 -345 0 -183 2 -209 26 -305 51 -201 118 -330 233 -446
166 -169 371 -258 590 -258 188 0 341 58 456 173 84 84 112 143 117 240 6 96
-10 143 -65 202 -50 54 -49 55 51 34 184 -39 276 -183 276 -433 0 -158 -33
-288 -117 -460 -191 -393 -544 -668 -957 -747 -367 -71 -712 24 -972 267 -163
153 -275 384 -338 698 -95 468 -35 1045 176 1700 42 131 96 270 105 270 3 0
37 -16 77 -35z m-3389 -1130 c25 -97 38 -121 105 -205 96 -120 114 -183 104
-375 l-6 -120 35 -57 c48 -79 147 -196 208 -248 42 -35 49 -46 45 -69 -36
-191 -59 -299 -66 -310 -5 -10 -27 12 -77 80 -65 87 -245 364 -306 470 -42 72
-59 83 -113 75 l-46 -6 7 63 c10 86 25 94 80 46 27 -24 41 -30 60 -25 34 9 44
51 20 90 -45 75 -75 141 -75 167 0 16 9 43 20 61 30 49 26 105 -12 164 -76
119 -94 194 -62 255 11 22 21 29 37 27 18 -2 25 -16 42 -83z m2882 -47 c-5
-46 -10 -192 -10 -325 l-2 -241 -28 16 c-16 10 -41 37 -55 62 -23 39 -27 58
-30 148 -3 57 -1 156 3 219 7 107 9 118 32 137 14 12 39 33 56 48 18 14 34 25
37 23 4 -2 2 -41 -3 -87z m-3123 -7 c19 -10 33 -29 38 -48 5 -18 28 -62 53
-99 47 -70 53 -84 33 -84 -52 1 -193 102 -224 161 -42 83 11 120 100 70z
m2878 -260 c-3 -160 -1 -186 18 -238 11 -32 21 -62 23 -67 4 -15 -80 -74 -140
-96 -119 -45 -219 -36 -259 25 -15 23 -14 28 12 92 24 59 28 85 32 199 l4 131
107 42 c58 23 126 53 151 66 25 13 47 24 50 25 3 0 4 -81 2 -179z m-2981 25
c27 -24 82 -61 123 -82 68 -35 76 -42 85 -78 5 -22 9 -42 7 -43 -6 -6 -113 30
-146 49 -19 12 -59 44 -87 72 -42 39 -53 57 -53 81 0 29 6 45 18 45 2 0 26
-20 53 -44z m-63 -207 c39 -34 166 -99 194 -99 22 0 23 -23 2 -44 -31 -32
-103 -13 -168 44 -40 35 -53 56 -66 101 -11 37 -6 36 38 -2z m2507 -179 c7
-12 -74 -104 -277 -318 -152 -160 -220 -255 -259 -362 -51 -141 -49 -266 6
-372 l24 -47 -42 -58 c-204 -276 -606 -698 -828 -868 -324 -249 -757 -453
-1079 -509 -41 -7 -77 -12 -79 -10 -2 2 9 13 25 25 56 42 192 190 265 289 297
402 555 953 678 1445 31 126 71 348 71 396 0 16 4 29 8 29 15 0 316 -257 385
-328 98 -102 112 -138 112 -290 1 -136 6 -147 63 -140 48 5 64 54 59 178 -3
88 -8 115 -31 165 -23 51 -25 61 -12 70 8 5 56 39 108 74 67 47 156 128 318
291 253 255 336 319 445 343 33 8 34 7 40 -3z m740 -67 c34 -17 54 -32 51 -40
-13 -32 -197 -265 -257 -324 -131 -129 -274 -207 -399 -216 -91 -7 -146 10
-196 61 -70 69 -69 154 1 294 36 70 130 192 148 192 6 0 -5 -17 -25 -37 -70
-72 -86 -154 -45 -233 27 -54 61 -80 114 -87 111 -15 227 91 234 215 l3 42 65
21 c73 23 169 74 216 113 17 14 31 25 32 26 2 0 28 -12 58 -27z m-512 -146
c24 -27 15 -64 -24 -99 -34 -32 -51 -35 -73 -12 -25 24 -20 78 10 114 29 34
56 34 87 -3z m664 -242 c65 -177 188 -375 289 -464 115 -101 286 -206 416
-255 79 -30 236 -63 330 -69 67 -5 69 -6 150 -74 276 -231 491 -360 845 -504
73 -30 133 -56 133 -59 0 -3 -49 -33 -108 -68 -161 -94 -272 -181 -423 -331
-175 -176 -338 -382 -448 -568 -24 -40 -47 -73 -51 -73 -24 0 -144 158 -230
305 -82 139 -427 816 -586 1148 -79 164 -170 347 -202 405 -33 59 -74 135 -91
169 -28 57 -53 83 -80 83 -20 0 -41 -32 -41 -63 0 -20 -13 -52 -35 -84 -52
-77 -120 -218 -147 -303 -18 -58 -23 -98 -23 -175 0 -113 2 -109 -87 -155
-106 -55 -197 -75 -343 -74 -112 0 -141 4 -207 26 -42 14 -97 37 -122 52 l-44
26 5 73 c9 122 -21 203 -151 396 -56 83 -78 126 -86 167 -24 114 27 257 139
397 35 42 67 77 72 77 5 0 9 -24 9 -54 0 -185 207 -304 442 -255 179 38 380
186 535 396 l78 104 18 -63 c10 -35 30 -94 44 -133z m-2692 -312 c22 -31 52
-65 66 -75 l26 -20 -29 -95 c-160 -517 -490 -1114 -772 -1397 -93 -94 -174
-161 -182 -153 -10 10 36 206 77 330 83 248 202 490 447 905 135 228 282 488
303 535 7 15 15 27 18 27 3 -1 24 -26 46 -57z m2722 -393 c33 -61 89 -172 124
-248 35 -75 128 -266 206 -424 79 -159 140 -288 137 -288 -3 0 -53 50 -111
111 -118 123 -233 222 -399 345 -61 45 -121 96 -133 113 -62 86 -35 264 67
439 20 34 39 62 42 62 3 0 33 -50 67 -110z m-273 -537 c-48 -41 -211 -126
-281 -146 -161 -48 -347 -43 -502 11 -88 32 -181 87 -181 108 0 18 29 64 41
64 4 0 29 -13 55 -30 104 -66 284 -106 433 -97 129 8 237 37 351 95 70 35 99
45 109 38 10 -8 5 -17 -25 -43z m213 -110 c42 -31 121 -98 177 -149 324 -293
587 -627 1081 -1374 713 -1078 1111 -1688 1210 -1857 l19 -33 -39 -41 c-175
-181 -455 -362 -734 -474 -596 -239 -1535 -349 -2216 -260 -177 23 -383 67
-625 134 -431 119 -479 125 -965 126 -432 1 -443 2 -618 75 -179 74 -379 250
-516 455 -111 165 -189 260 -290 358 l-91 88 15 29 c14 28 54 90 243 380 250
384 730 1022 1081 1435 268 316 690 784 899 996 l104 106 73 -49 74 -50 -65
-91 c-140 -199 -619 -924 -751 -1137 -329 -530 -604 -1024 -854 -1535 -139
-284 -222 -467 -234 -518 -9 -33 8 -57 40 -57 25 0 34 15 105 180 56 129 355
720 476 942 295 540 660 1134 1115 1813 255 382 245 368 277 360 15 -3 31 -10
35 -15 5 -4 -61 -187 -146 -406 -437 -1125 -685 -1821 -947 -2663 -94 -298
-133 -448 -126 -477 5 -18 13 -24 35 -24 16 0 33 6 39 13 6 7 36 98 66 202
146 507 376 1194 649 1945 147 402 516 1372 526 1383 5 5 24 4 42 -1 28 -7 34
-13 32 -33 -7 -79 -78 -691 -103 -889 -41 -332 -64 -541 -105 -970 -20 -206
-53 -546 -75 -755 -62 -604 -94 -978 -87 -1006 9 -33 42 -44 66 -20 14 14 20
50 30 177 19 239 57 649 96 1024 19 184 44 432 55 550 21 218 36 355 135 1236
30 270 58 530 61 578 4 48 12 90 18 94 10 5 116 21 116 16 0 -1 38 -188 84
-415 90 -439 114 -553 202 -933 100 -433 265 -1239 395 -1934 49 -266 93 -490
96 -498 16 -42 83 -35 83 8 0 27 -155 882 -216 1193 -62 315 -198 951 -289
1355 -42 184 -99 439 -126 565 -94 432 -140 640 -144 656 -4 12 12 21 70 39
41 13 77 22 79 19 14 -16 669 -1326 766 -1534 292 -622 403 -863 527 -1140
143 -320 403 -915 403 -922 0 -14 44 -53 60 -53 23 0 40 20 40 47 0 12 -22 73
-49 135 -27 62 -72 169 -101 237 -163 393 -565 1276 -817 1796 -90 187 -294
598 -453 913 l-289 572 27 14 c15 8 58 40 96 70 38 31 71 56 74 56 2 0 38 -26
79 -57z m2272 -195 c-21 -41 -96 -142 -127 -171 l-29 -28 -53 33 -52 32 32 26
c32 26 219 130 233 130 4 0 2 -10 -4 -22z m-306 -252 c31 -19 125 -90 209
-158 84 -68 203 -162 263 -208 61 -46 144 -111 185 -146 76 -63 173 -160 134
-133 -12 8 -62 42 -113 77 -113 77 -132 85 -160 66 -44 -32 -29 -54 109 -158
143 -107 268 -218 252 -224 -23 -7 -182 78 -318 170 -78 52 -185 117 -237 144
-85 43 -98 47 -121 36 -32 -14 -33 -29 -2 -135 29 -100 45 -234 27 -223 -6 4
-27 38 -45 74 -19 37 -58 99 -86 137 -75 100 -102 164 -108 252 -6 99 -50 175
-149 257 -60 50 -70 63 -60 75 20 23 147 131 155 131 5 0 34 -15 65 -34z
m-250 -249 l49 -42 -84 -65 c-73 -58 -299 -221 -337 -244 -17 -11 46 76 152
209 115 144 151 184 162 184 6 1 32 -18 58 -42z"/>
<path d="M7274 9762 c-6 -4 -16 -17 -23 -29 -8 -15 -22 -23 -49 -25 -29 -2
-38 -8 -40 -24 -2 -11 4 -26 12 -33 9 -8 12 -24 9 -50 -6 -46 7 -58 48 -41 27
11 32 10 54 -10 32 -30 55 -20 55 24 0 30 5 37 35 52 46 22 42 45 -10 60 -31
8 -41 16 -43 35 -6 40 -25 57 -48 41z"/>
<path d="M6623 9645 c-27 -34 -30 -35 -77 -29 -40 6 -51 4 -62 -10 -14 -20
-10 -38 17 -76 15 -22 15 -29 3 -50 -17 -32 -18 -76 0 -83 7 -3 31 -1 52 4 22
4 41 9 44 9 3 0 14 -16 24 -35 19 -35 54 -53 75 -40 6 3 11 26 11 49 0 41 3
45 38 60 89 40 93 55 24 90 -46 23 -50 28 -54 70 -10 83 -48 99 -95 41z m37
-103 c0 -10 6 -24 13 -31 10 -11 10 -14 0 -18 -7 -3 -13 -12 -13 -20 0 -13 -3
-13 -15 -3 -9 7 -25 10 -40 6 -23 -6 -25 -5 -16 13 6 11 8 27 5 35 -5 12 0 16
20 16 14 0 26 5 26 10 0 6 5 10 10 10 6 0 10 -8 10 -18z"/>
<path d="M6152 9473 c-32 -34 -39 -37 -91 -38 -48 0 -56 -3 -59 -20 -1 -11 5
-36 15 -55 17 -33 17 -37 1 -70 -38 -78 -13 -115 63 -90 37 12 38 12 69 -24
55 -63 100 -45 100 39 0 51 0 52 39 63 76 23 79 61 7 93 -45 19 -56 34 -56 73
0 25 -26 66 -42 66 -6 0 -26 -17 -46 -37z m51 -139 l22 -7 -22 -10 c-15 -7
-23 -19 -23 -35 0 -23 -1 -24 -18 -9 -11 10 -26 14 -40 10 -21 -5 -22 -4 -11
20 9 21 9 30 -1 42 -11 13 -8 15 18 15 19 0 33 6 38 18 6 14 8 12 12 -10 2
-17 11 -30 25 -34z"/>
<path d="M6918 9463 c-8 -10 -18 -26 -21 -35 -5 -14 -18 -18 -51 -18 -40 0
-46 -3 -52 -24 -3 -14 1 -37 11 -56 13 -25 14 -38 6 -62 -6 -17 -11 -39 -11
-49 0 -24 37 -33 75 -19 25 10 31 8 60 -20 17 -16 38 -30 46 -30 20 0 39 41
39 83 0 27 7 36 41 55 55 32 51 61 -12 81 -43 15 -47 19 -59 63 -10 39 -16 48
-34 48 -13 0 -30 -8 -38 -17z m32 -118 c0 -8 7 -15 15 -15 20 0 19 -16 -1 -24
-11 -4 -13 -13 -8 -28 7 -23 6 -23 -14 -4 -19 16 -24 17 -38 5 -15 -12 -16
-11 -10 9 5 14 3 29 -4 37 -10 13 -8 15 14 15 14 0 26 5 26 10 0 6 5 10 10 10
6 0 10 -7 10 -15z"/>
<path d="M6500 9130 c-16 -17 -32 -40 -35 -51 -6 -19 -12 -20 -52 -14 -33 5
-51 2 -69 -10 -32 -21 -30 -42 7 -94 l31 -42 -17 -55 c-25 -81 1 -103 81 -69
35 14 37 14 81 -20 25 -19 52 -35 59 -35 21 0 44 54 44 102 1 40 4 45 46 70
75 46 69 79 -22 102 -48 12 -48 12 -69 76 -24 77 -42 86 -85 40z m68 -168 c27
-4 28 -19 2 -27 -14 -5 -20 -15 -20 -37 0 -30 -1 -31 -20 -13 -16 14 -25 15
-49 7 -29 -10 -30 -10 -19 14 10 21 8 28 -18 55 l-29 32 37 -7 c33 -6 39 -4
55 20 l17 27 11 -34 c8 -23 19 -35 33 -37z"/>
<path d="M4913 8744 c-55 -13 -94 -94 -59 -123 16 -14 29 -14 101 -6 62 8 101
-14 148 -82 65 -95 104 -115 142 -73 24 26 15 67 -31 135 -40 62 -78 97 -137
126 -39 21 -122 32 -164 23z"/>
<path d="M4813 8381 c-262 -90 -381 -443 -214 -633 45 -51 102 -71 193 -67 97
5 173 42 253 123 70 70 108 137 131 227 60 235 -139 428 -363 350z m175 -131
c65 -40 89 -147 52 -235 l-13 -30 -8 45 c-18 95 -101 122 -175 58 -72 -63
-100 -189 -55 -248 27 -37 13 -47 -47 -30 -127 34 -128 237 -2 373 76 83 177
110 248 67z"/>
<path d="M4617 7492 c-25 -28 -21 -69 8 -88 l25 -16 -25 -20 c-45 -35 -183
-79 -270 -85 -138 -10 -248 32 -354 134 -59 56 -87 65 -114 35 -21 -23 -21
-45 -2 -81 15 -30 111 -121 126 -121 5 0 9 -24 9 -53 0 -97 62 -186 149 -216
125 -41 302 41 495 230 86 84 101 95 113 83 18 -17 65 -18 81 -2 7 7 12 30 12
51 0 48 -36 86 -127 135 -69 36 -103 40 -126 14z m-299 -327 c43 0 71 -4 69
-10 -8 -23 -83 -55 -130 -55 -40 0 -53 5 -78 29 -43 44 -38 55 19 45 26 -5 80
-9 120 -9z"/>
</g>
</svg>
